<svg width="9" height="14" viewBox="0 0 9 14" fill="none" xmlns="http://www.w3.org/2000/svg">
<path d="M0.742928 0.334001C0.545612 0.530882 0.434766 0.797875 0.434766 1.07626C0.434766 1.35465 0.545612 1.62165 0.742928 1.81853L5.95287 7.01542L0.742928 12.2123C0.551204 12.4103 0.445116 12.6755 0.447515 12.9508C0.449913 13.2261 0.560604 13.4894 0.755748 13.6841C0.950893 13.8787 1.21488 13.9891 1.49084 13.9915C1.76681 13.9939 2.03267 13.8881 2.23118 13.6968L8.18525 7.75769C8.38256 7.5608 8.49341 7.29381 8.49341 7.01542C8.49341 6.73703 8.38256 6.47004 8.18525 6.27316L2.23118 0.334001C2.0338 0.13718 1.76614 0.0266113 1.48705 0.0266113C1.20797 0.0266113 0.940303 0.13718 0.742928 0.334001Z" fill="#CCCCCC"/>
</svg>
