<svg width="24" height="24" viewBox="0 0 24 24" fill="none" xmlns="http://www.w3.org/2000/svg">
<path fill-rule="evenodd" clip-rule="evenodd" d="M3 18.4755V12.5851C3 11.9966 3 11.7022 3.07309 11.4283C3.13787 11.1856 3.24502 10.9559 3.38892 10.7484C3.5513 10.5142 3.77697 10.32 4.22937 9.93244L9.63116 5.30489C10.4698 4.58643 10.8892 4.22718 11.3615 4.09043C11.7779 3.96986 12.2218 3.96986 12.6383 4.09043C13.1109 4.22728 13.5309 4.58687 14.3708 5.30642L19.7709 9.93244C20.2232 10.32 20.449 10.5142 20.6114 10.7484C20.7553 10.9559 20.8616 11.1856 20.9264 11.4283C20.9995 11.7022 21 11.9966 21 12.5851V18.4794C21 19.7107 21 20.327 20.755 20.7978C20.5393 21.2123 20.1942 21.5489 19.7708 21.7601C19.29 22 18.6611 22 17.4035 22H15V18C15 16.3431 13.6569 15 12 15C10.3431 15 9 16.3431 9 18V22H6.59652C5.33887 22 4.7091 22 4.22827 21.7601C3.80491 21.5489 3.46095 21.2123 3.24524 20.7978C3 20.3265 3 19.7092 3 18.4755Z" fill="#D1D2D1"/>
<path d="M3.07309 11.4283L4.03927 11.6862L4.03927 11.6862L3.07309 11.4283ZM3.38892 10.7484L4.2107 11.3182L4.21071 11.3182L3.38892 10.7484ZM4.22937 9.93244L3.57879 9.173H3.57879L4.22937 9.93244ZM9.63116 5.30489L8.98058 4.54546L8.98057 4.54546L9.63116 5.30489ZM11.3615 4.09043L11.6396 5.05098L11.3615 4.09043ZM12.6383 4.09043L12.9164 3.12989L12.9164 3.12989L12.6383 4.09043ZM14.3708 5.30642L13.7203 6.06585L14.3708 5.30642ZM19.7709 9.93244L20.4214 9.173L20.4214 9.173L19.7709 9.93244ZM20.6114 10.7484L21.4332 10.1786V10.1786L20.6114 10.7484ZM20.9264 11.4283L21.8926 11.1704V11.1704L20.9264 11.4283ZM20.755 20.7978L21.6421 21.2594H21.6421L20.755 20.7978ZM19.7708 21.7601L20.2172 22.655L20.2172 22.655L19.7708 21.7601ZM15 22H14C14 22.5523 14.4477 23 15 23V22ZM9 22V23C9.55228 23 10 22.5523 10 22H9ZM4.22827 21.7601L3.78188 22.655L3.78188 22.655L4.22827 21.7601ZM3.24524 20.7978L2.35817 21.2594H2.35817L3.24524 20.7978ZM2 12.5851V18.4755H4V12.5851H2ZM2.10691 11.1704C1.9921 11.6006 2 12.05 2 12.5851H4C4 11.9432 4.0079 11.8037 4.03927 11.6862L2.10691 11.1704ZM2.56713 10.1786C2.35881 10.4791 2.20206 10.8139 2.10691 11.1704L4.03927 11.6862C4.07367 11.5573 4.13123 11.4328 4.2107 11.3182L2.56713 10.1786ZM3.57879 9.173C3.1651 9.5274 2.81984 9.81413 2.56713 10.1786L4.21071 11.3182C4.28276 11.2143 4.38885 11.1126 4.87995 10.6919L3.57879 9.173ZM8.98057 4.54546L3.57879 9.173L4.87995 10.6919L10.2817 6.06432L8.98057 4.54546ZM11.0834 3.12989C10.6907 3.24357 10.3601 3.44048 10.043 3.67263C9.73628 3.89718 9.38835 4.19613 8.98058 4.54546L10.2817 6.06433C10.7126 5.69519 10.9937 5.45528 11.2244 5.28641C11.4447 5.12513 11.56 5.07404 11.6396 5.05098L11.0834 3.12989ZM12.9164 3.12989C12.3183 2.9567 11.6815 2.9567 11.0834 3.12989L11.6396 5.05098C11.8744 4.98301 12.1254 4.98301 12.3602 5.05098L12.9164 3.12989ZM15.0214 4.54699C14.613 4.19707 14.2646 3.89778 13.9575 3.67298C13.64 3.44062 13.3092 3.24362 12.9164 3.12989L12.3602 5.05098C12.44 5.0741 12.5555 5.12531 12.7762 5.28684C13.0072 5.45594 13.2888 5.69622 13.7203 6.06585L15.0214 4.54699ZM20.4214 9.173L15.0214 4.54699L13.7203 6.06585L19.1203 10.6919L20.4214 9.173ZM21.4332 10.1786C21.1804 9.81409 20.835 9.52729 20.4214 9.173L19.1203 10.6919C19.6115 11.1127 19.7176 11.2143 19.7896 11.3182L21.4332 10.1786ZM21.8926 11.1704C21.7979 10.8159 21.6426 10.4807 21.4332 10.1786L19.7896 11.3182C19.8679 11.4312 19.9253 11.5553 19.9602 11.6862L21.8926 11.1704ZM22 12.5851C22 12.0484 22.0073 11.6002 21.8926 11.1704L19.9602 11.6862C19.9917 11.8041 20 11.9447 20 12.5851H22ZM22 18.4794V12.5851H20V18.4794H22ZM21.6421 21.2594C21.8511 20.8577 21.93 20.4373 21.9659 20.007C22.0008 19.5889 22 19.0782 22 18.4794H20C20 19.1119 19.9992 19.525 19.9728 19.8406C19.9475 20.1439 19.9039 20.267 19.8679 20.3361L21.6421 21.2594ZM20.2172 22.655C20.8258 22.3514 21.327 21.8648 21.6421 21.2594L19.8679 20.3361C19.7516 20.5597 19.5626 20.7465 19.3244 20.8653L20.2172 22.655ZM17.4035 23C18.0161 23 18.5346 23.0007 18.9583 22.9668C19.3931 22.932 19.8143 22.856 20.2172 22.655L19.3244 20.8653C19.2465 20.9042 19.1129 20.9481 18.7987 20.9732C18.4733 20.9993 18.0485 21 17.4035 21V23ZM15 23H17.4035V21H15V23ZM14 18V22H16V18H14ZM12 16C13.1046 16 14 16.8954 14 18H16C16 15.7909 14.2091 14 12 14V16ZM10 18C10 16.8954 10.8954 16 12 16V14C9.79086 14 8 15.7909 8 18H10ZM10 22V18H8V22H10ZM6.59652 23H9V21H6.59652V23ZM3.78188 22.655C4.18489 22.856 4.60644 22.932 5.04134 22.9668C5.46522 23.0007 5.98384 23 6.59652 23V21C5.95155 21 5.52646 20.9993 5.20084 20.9732C4.88624 20.948 4.75248 20.9041 4.67466 20.8653L3.78188 22.655ZM2.35817 21.2594C2.6727 21.8638 3.17218 22.3508 3.78188 22.655L4.67466 20.8653C4.43763 20.7471 4.2492 20.5607 4.1323 20.3361L2.35817 21.2594ZM2 18.4755C2 19.0755 1.99919 19.5871 2.03412 20.0057C2.07007 20.4366 2.14897 20.8574 2.35817 21.2594L4.1323 20.3361C4.09627 20.2669 4.05255 20.1434 4.02719 19.8394C4.00081 19.5232 4 19.1092 4 18.4755H2Z" fill="#D1D2D1"/>
</svg>
