<svg width="22" height="24" viewBox="0 0 22 24" fill="none" xmlns="http://www.w3.org/2000/svg">
<path d="M18.1832 17.6846L16.7983 19.0542C15.7779 20.0552 14.4533 21.3432 12.8247 22.9182C12.3352 23.3915 11.6809 23.6561 11 23.6561C10.3191 23.6561 9.66483 23.3915 9.17533 22.9182L5.1025 18.9562C4.58994 18.4538 4.16139 18.0299 3.81683 17.6846C2.39626 16.2639 1.42886 14.4539 1.03696 12.4834C0.645069 10.5129 0.846277 8.47051 1.61515 6.61439C2.38402 4.75827 3.68601 3.17182 5.3565 2.05566C7.02699 0.939497 8.99093 0.34375 11 0.34375C13.0091 0.34375 14.973 0.939497 16.6435 2.05566C18.314 3.17182 19.616 4.75827 20.3849 6.61439C21.1537 8.47051 21.3549 10.5129 20.963 12.4834C20.5711 14.4539 19.6037 16.2639 18.1832 17.6846ZM13.9167 10.8222C13.9167 10.0487 13.6094 9.30682 13.0624 8.75984C12.5154 8.21286 11.7735 7.90557 11 7.90557C10.2264 7.90557 9.48458 8.21286 8.9376 8.75984C8.39062 9.30682 8.08333 10.0487 8.08333 10.8222C8.08333 11.5958 8.39062 12.3376 8.9376 12.8846C9.48458 13.4316 10.2264 13.7389 11 13.7389C11.7735 13.7389 12.5154 13.4316 13.0624 12.8846C13.6094 12.3376 13.9167 11.5958 13.9167 10.8222Z" fill="#D1D2D1"/>
</svg>
