<svg width="24" height="24" viewBox="0 0 24 24" fill="none" xmlns="http://www.w3.org/2000/svg">
<path fill-rule="evenodd" clip-rule="evenodd" d="M2.58579 19.4142C2.96086 19.7893 3.46957 20 4 20H20C20.5304 20 21.0391 19.7893 21.4142 19.4142C21.7893 19.0391 22 18.5304 22 18V6C22 5.46957 21.7893 4.96086 21.4142 4.58579C21.0391 4.21071 20.5304 4 20 4H4C3.46957 4 2.96086 4.21071 2.58579 4.58579C2.21071 4.96086 2 5.46957 2 6V18C2 18.5304 2.21071 19.0391 2.58579 19.4142ZM8 11.5C8.55228 11.5 9 11.0523 9 10.5C9 9.94772 8.55228 9.5 8 9.5C7.44772 9.5 7 9.94772 7 10.5C7 11.0523 7.44772 11.5 8 11.5ZM16 11.5C16.5523 11.5 17 11.0523 17 10.5C17 9.94772 16.5523 9.5 16 9.5C15.4477 9.5 15 9.94772 15 10.5C15 11.0523 15.4477 11.5 16 11.5ZM8.97095 13.3321C8.8799 13.0764 8.60056 12.9394 8.34189 13.0257C8.07991 13.113 7.93833 13.3961 8.02566 13.6581L8.5 13.5C8.02566 13.6581 8.0258 13.6585 8.02594 13.659L8.02624 13.6599L8.02688 13.6617L8.02833 13.6659L8.03192 13.676C8.03464 13.6834 8.03802 13.6923 8.04211 13.7025C8.0503 13.723 8.06138 13.7489 8.07591 13.7794C8.10498 13.8405 8.14787 13.9201 8.20897 14.0117C8.3316 14.1957 8.52609 14.4258 8.825 14.65C9.4278 15.1021 10.4141 15.5 12 15.5C13.5859 15.5 14.5722 15.1021 15.175 14.65C15.4739 14.4258 15.6684 14.1957 15.791 14.0117C15.8521 13.9201 15.895 13.8405 15.9241 13.7794C15.9386 13.7489 15.9497 13.723 15.9579 13.7025C15.962 13.6923 15.9654 13.6834 15.9681 13.676L15.9717 13.6659L15.9731 13.6617L15.9738 13.6599L15.9741 13.659C15.9742 13.6585 15.9743 13.6581 15.5 13.5L15.9743 13.6581C16.0617 13.3961 15.9201 13.113 15.6581 13.0257C15.3994 12.9394 15.1201 13.0764 15.029 13.3321C15.0285 13.3333 15.0277 13.3354 15.0263 13.3384C15.0251 13.3413 15.0234 13.345 15.0212 13.3495C15.0112 13.3705 14.9916 13.4081 14.959 13.457C14.8941 13.5543 14.7761 13.6992 14.575 13.85C14.1778 14.1479 13.4141 14.5 12 14.5C10.5859 14.5 9.8222 14.1479 9.425 13.85C9.22391 13.6992 9.1059 13.5543 9.04103 13.457C9.00838 13.4081 8.98877 13.3705 8.97877 13.3495C8.97447 13.3404 8.97195 13.3345 8.97095 13.3321Z" fill="#D1D2D1"/>
</svg>
